<?xml version="1.0" encoding="UTF-8" standalone="no"?><!DOCTYPE svg PUBLIC "-//W3C//DTD SVG 1.1//EN" "http://www.w3.org/Graphics/SVG/1.1/DTD/svg11.dtd"><svg width="100%" height="100%" viewBox="0 0 1000 310" version="1.1" xmlns="http://www.w3.org/2000/svg" xmlns:xlink="http://www.w3.org/1999/xlink" xml:space="preserve" xmlns:serif="http://www.serif.com/" style="fill-rule:evenodd;clip-rule:evenodd;stroke-linejoin:round;stroke-miterlimit:2;"><g><path d="M222.219,178.575c-0,24.068 -19.583,43.65 -43.651,43.65l-47.618,0c-24.068,0 -43.651,-19.582 -43.651,-43.65l-0,-43.651l39.683,-0l-0,47.618l55.554,0l-0,-47.618l39.683,-0l-0,43.651Zm-134.92,-91.27l134.92,0l-0,39.683l-47.619,0l0,47.619l-39.683,-0l0,-47.619l-47.618,0l-0,-39.683Zm142.861,-7.935l-150.797,-0l0,99.205c0,28.446 23.14,51.586 51.587,51.586l47.618,-0c28.447,-0 51.586,-23.14 51.586,-51.586l0.006,-99.205Z" style="fill:#fff;fill-rule:nonzero;"/><path d="M301.763,108.957l-12.133,0l-0,33.902l-6.576,0l0,-33.902l-12.132,0l-0,-5.781l30.841,0l-0,5.781Z" style="fill:#fff;fill-rule:nonzero;"/><path d="M307.999,142.861l-0,-39.688l25.913,0l0,5.557l-19.337,0l-0,10.885l18.143,-0l-0,5.333l-18.143,-0l-0,12.356l20.126,0l0,5.557l-26.702,0Z" style="fill:#fff;fill-rule:nonzero;"/><path d="M365.093,129.708l6.517,-0l-0,1.589c-0,1.546 -0.251,3.002 -0.763,4.362c-0.512,1.36 -1.323,2.651 -2.437,3.856c-1.115,1.211 -2.693,2.176 -4.736,2.891c-2.042,0.719 -4.442,1.077 -7.199,1.077c-2.8,-0 -5.227,-0.411 -7.285,-1.248c-2.064,-0.827 -3.659,-1.947 -4.795,-3.344c-1.13,-1.397 -1.962,-2.901 -2.49,-4.506c-0.534,-1.606 -0.795,-3.317 -0.795,-5.131l0,-12.532c0,-1.814 0.261,-3.515 0.795,-5.099c0.528,-1.589 1.36,-3.082 2.49,-4.479c1.136,-1.398 2.731,-2.518 4.795,-3.35c2.058,-0.826 4.485,-1.242 7.285,-1.242c2.757,-0 5.157,0.346 7.199,1.045c2.043,0.704 3.621,1.648 4.736,2.837c1.114,1.19 1.925,2.448 2.437,3.771c0.512,1.322 0.763,2.741 0.763,4.25l-0,1.36l-6.517,0l-0,-1.019c-0,-1.775 -0.683,-3.295 -2.043,-4.565c-1.36,-1.264 -3.552,-1.898 -6.575,-1.898c-3.062,-0 -5.291,0.816 -6.688,2.437c-1.403,1.627 -2.101,3.61 -2.101,5.952l-0,12.532c-0,2.384 0.688,4.384 2.069,6.011c1.381,1.626 3.621,2.437 6.72,2.437c3.023,-0 5.215,-0.651 6.575,-1.957c1.36,-1.302 2.043,-2.902 2.043,-4.789l-0,-1.248Z" style="fill:#fff;fill-rule:nonzero;"/><path d="M403.645,142.861l0,-17.86l-17.802,0l0,17.86l-6.58,0l-0,-39.688l6.58,0l0,16.101l17.802,-0l0,-16.101l6.576,0l-0,39.688l-6.576,0Z" style="fill:#fff;fill-rule:nonzero;"/><path d="M445.429,142.861l-19.22,-27.571l0,27.571l-6.234,0l-0,-39.688l5.482,0l19.178,27.615l-0,-27.615l6.293,0l-0,39.688l-5.499,0Z" style="fill:#fff;fill-rule:nonzero;"/><rect x="460.682" y="103.173" width="6.576" height="39.688" style="fill:#fff;"/><path d="M499.915,129.708l6.517,-0l-0,1.589c-0,1.546 -0.251,3.002 -0.763,4.362c-0.512,1.36 -1.323,2.651 -2.437,3.856c-1.115,1.211 -2.693,2.176 -4.736,2.891c-2.042,0.719 -4.442,1.077 -7.199,1.077c-2.8,-0 -5.227,-0.411 -7.285,-1.248c-2.064,-0.827 -3.659,-1.947 -4.795,-3.344c-1.13,-1.397 -1.962,-2.901 -2.49,-4.506c-0.534,-1.606 -0.795,-3.317 -0.795,-5.131l0,-12.532c0,-1.814 0.261,-3.515 0.795,-5.099c0.528,-1.589 1.36,-3.082 2.49,-4.479c1.136,-1.398 2.731,-2.518 4.795,-3.35c2.058,-0.826 4.485,-1.242 7.285,-1.242c2.757,-0 5.157,0.346 7.199,1.045c2.043,0.704 3.621,1.648 4.736,2.837c1.114,1.19 1.925,2.448 2.437,3.771c0.512,1.322 0.763,2.741 0.763,4.25l-0,1.36l-6.517,0l-0,-1.019c-0,-1.775 -0.683,-3.295 -2.043,-4.565c-1.36,-1.264 -3.552,-1.898 -6.575,-1.898c-3.062,-0 -5.291,0.816 -6.693,2.437c-1.398,1.627 -2.096,3.61 -2.096,5.952l-0,12.532c-0,2.384 0.688,4.384 2.069,6.011c1.381,1.626 3.621,2.437 6.72,2.437c3.023,-0 5.215,-0.651 6.575,-1.957c1.36,-1.302 2.043,-2.902 2.043,-4.789l-0,-1.248Z" style="fill:#fff;fill-rule:nonzero;"/><path d="M520.664,131.921l-0,10.938l-6.576,0l0,-39.688l6.576,0l-0,20.137l17.295,-20.137l7.823,0l-14.612,16.724l14.948,22.964l-7.877,0l-11.625,-17.748l-5.952,6.81Z" style="fill:#fff;fill-rule:nonzero;"/><path d="M573.903,92.231l-5.839,8.107l-5.045,-0l4.079,-8.107l6.805,0Zm-2.725,35.833l-5.845,-17.135l-5.807,17.135l11.652,-0Zm5.051,14.799l-3.27,-9.583l-15.199,-0l-3.247,9.583l-6.635,0l14.346,-39.688l6.629,-0l14.293,39.688l-6.917,0Z" style="fill:#fff;fill-rule:nonzero;"/><path d="M600.55,103.174l6.575,-0l0,25.737c0,2.458 0.699,4.538 2.102,6.239c1.397,1.702 3.701,2.555 6.917,2.555c3.21,-0 5.514,-0.853 6.917,-2.555c1.397,-1.701 2.095,-3.781 2.095,-6.239l0,-25.737l6.576,-0l0,26.078c0,1.813 -0.267,3.525 -0.795,5.131c-0.528,1.61 -1.36,3.114 -2.495,4.511c-1.131,1.398 -2.747,2.512 -4.843,3.344c-2.101,0.832 -4.586,1.248 -7.455,1.248c-2.838,-0 -5.312,-0.416 -7.429,-1.248c-2.118,-0.832 -3.744,-1.946 -4.875,-3.344c-1.136,-1.397 -1.968,-2.901 -2.496,-4.511c-0.533,-1.606 -0.794,-3.318 -0.794,-5.131l-0,-26.078Z" style="fill:#fff;fill-rule:nonzero;"/><path d="M666.658,142.861l-19.22,-27.571l-0,27.571l-6.235,0l0,-39.688l5.483,0l19.177,27.615l0,-27.615l6.293,0l0,39.688l-5.498,0Z" style="fill:#fff;fill-rule:nonzero;"/><rect x="681.907" y="103.173" width="6.576" height="39.688" style="fill:#fff;"/><path d="M708.329,142.861l-13.834,-39.688l7.029,0l10.389,30.654l10.309,-30.654l6.687,0l-13.887,39.688l-6.693,0Z" style="fill:#fff;fill-rule:nonzero;"/><path d="M734.805,142.861l0,-39.688l25.914,0l-0,5.557l-19.338,0l0,10.885l18.143,-0l-0,5.333l-18.143,-0l0,12.356l20.127,0l-0,5.557l-26.703,0Z" style="fill:#fff;fill-rule:nonzero;"/><path d="M784.415,108.73l-8.448,-0l0,14.345l8.448,0c5.973,0 8.959,-2.383 8.959,-7.146c0,-4.8 -2.986,-7.199 -8.959,-7.199m-0.032,19.785l-8.416,0l0,14.346l-6.575,-0l-0,-39.688l14.964,-0c2.949,-0 5.482,0.341 7.6,1.024c2.117,0.677 3.743,1.631 4.874,2.858c1.136,1.232 1.957,2.565 2.469,4c0.507,1.434 0.763,3.024 0.763,4.762c-0,5.899 -2.608,9.733 -7.824,11.509l7.2,15.535l-7.029,-0l-6.549,-14.399c-0.341,0.037 -0.837,0.053 -1.477,0.053" style="fill:#fff;fill-rule:nonzero;"/><path d="M806.355,103.174l28.313,-0l0,5.29l-21.022,28.782l21.828,0l-0,5.616l-30.1,0l0,-5.344l21.055,-28.729l-20.074,0l0,-5.615Z" style="fill:#fff;fill-rule:nonzero;"/><rect x="842.868" y="103.173" width="6.576" height="39.688" style="fill:#fff;"/><path d="M886.582,108.957l-12.133,0l-0,33.902l-6.576,0l0,-33.902l-12.132,0l-0,-5.781l30.841,0l-0,5.781Z" style="fill:#fff;fill-rule:nonzero;"/><path d="M908.294,128.064l-5.845,-17.135l-5.807,17.135l11.652,-0Zm5.045,14.799l-3.269,-9.583l-15.193,-0l-3.248,9.583l-6.635,0l14.346,-39.688l6.629,-0l14.293,39.688l-6.923,0Z" style="fill:#fff;fill-rule:nonzero;"/><path d="M284.47,206.355l-13.834,-39.688l7.029,0l10.389,30.654l10.309,-30.654l6.687,0l-13.887,39.688l-6.693,0Z" style="fill:#fff;fill-rule:nonzero;"/><path d="M329.43,195.415l-0,10.938l-6.576,0l0,-39.688l6.576,-0l-0,20.143l17.295,-20.143l7.823,-0l-14.612,16.724l14.948,22.964l-7.877,0l-11.626,-17.748l-5.951,6.81Z" style="fill:#fff;fill-rule:nonzero;"/><path d="M373.2,201.196c3.248,0 5.584,-0.842 7.002,-2.522c1.419,-1.686 2.123,-3.771 2.123,-6.267l-0,-11.791c-0,-2.496 -0.704,-4.586 -2.123,-6.266c-1.418,-1.68 -3.754,-2.523 -7.002,-2.523c-3.216,0 -5.53,0.848 -6.944,2.549c-1.418,1.702 -2.127,3.782 -2.127,6.24l-0,11.791c-0,2.459 0.709,4.539 2.127,6.24c1.414,1.696 3.728,2.549 6.944,2.549m7.482,4.533c-2.117,0.832 -4.613,1.248 -7.482,1.248c-2.875,0 -5.36,-0.416 -7.456,-1.248c-2.095,-0.826 -3.722,-1.941 -4.874,-3.344c-1.157,-1.397 -1.995,-2.901 -2.522,-4.506c-0.534,-1.605 -0.795,-3.317 -0.795,-5.13l-0,-12.533c-0,-1.813 0.261,-3.514 0.795,-5.098c0.527,-1.59 1.365,-3.083 2.522,-4.48c1.152,-1.397 2.779,-2.517 4.874,-3.349c2.096,-0.832 4.581,-1.243 7.456,-1.243c2.869,0 5.365,0.411 7.482,1.243c2.117,0.832 3.755,1.952 4.907,3.349c1.152,1.397 1.994,2.89 2.522,4.48c0.528,1.584 0.795,3.285 0.795,5.098l-0,12.533c-0,1.813 -0.267,3.525 -0.795,5.13c-0.528,1.605 -1.37,3.109 -2.522,4.506c-1.152,1.403 -2.79,2.518 -4.907,3.344" style="fill:#fff;fill-rule:nonzero;"/><path d="M411.014,160.66l0.048,-0.011l3.584,-4.922l4.933,0.165l-5.594,7.994l-5.803,-0.053l-5.669,-8.106l4.933,0.027l3.568,4.906Zm14.458,17.348l-6.576,0l0,-0.682c0,-3.894 -2.794,-5.84 -8.388,-5.84c-5.259,-0 -7.883,1.85 -7.883,5.546c0,1.414 0.422,2.501 1.27,3.264c0.848,0.763 2.197,1.349 4.037,1.771l8.41,1.824c6.602,1.429 9.914,4.89 9.925,10.388c-0,3.893 -1.19,6.981 -3.568,9.269c-2.384,2.288 -6.165,3.429 -11.343,3.429c-2.987,0 -5.557,-0.304 -7.712,-0.906c-2.154,-0.603 -3.786,-1.446 -4.901,-2.523c-1.115,-1.077 -1.92,-2.218 -2.411,-3.429c-0.49,-1.211 -0.735,-2.549 -0.735,-4.027l-0,-0.735l6.575,-0l0,0.624c0,3.669 3.024,5.498 9.072,5.498c5.482,-0 8.218,-2.117 8.218,-6.352c-0,-1.472 -0.443,-2.634 -1.328,-3.482c-0.891,-0.854 -2.283,-1.483 -4.171,-1.904l-8.399,-1.845c-6.272,-1.366 -9.402,-4.832 -9.402,-10.4c-0,-3.328 1.2,-6.063 3.6,-8.218c2.399,-2.154 6.021,-3.232 10.858,-3.232c5.103,0 8.852,1.067 11.252,3.2c2.4,2.139 3.6,4.789 3.6,7.968l0,0.794Z" style="fill:#fff;fill-rule:nonzero;"/><rect x="434.151" y="166.668" width="6.576" height="39.688" style="fill:#fff;"/><path d="M473.382,193.201l6.517,0l0,1.59c0,1.546 -0.25,3.002 -0.762,4.362c-0.512,1.36 -1.323,2.651 -2.437,3.856c-1.115,1.21 -2.694,2.176 -4.736,2.89c-2.043,0.72 -4.443,1.078 -7.2,1.078c-2.8,-0 -5.226,-0.411 -7.285,-1.248c-2.064,-0.827 -3.658,-1.941 -4.794,-3.344c-1.131,-1.397 -1.963,-2.901 -2.491,-4.506c-0.533,-1.606 -0.794,-3.318 -0.794,-5.131l-0,-12.532c-0,-1.814 0.261,-3.515 0.794,-5.099c0.528,-1.589 1.36,-3.082 2.491,-4.48c1.136,-1.397 2.73,-2.517 4.794,-3.349c2.059,-0.826 4.485,-1.242 7.285,-1.242c2.757,-0 5.157,0.346 7.2,1.045c2.042,0.704 3.621,1.648 4.736,2.837c1.114,1.189 1.925,2.448 2.437,3.771c0.512,1.322 0.762,2.741 0.762,4.25l0,1.36l-6.517,-0l0,-1.019c0,-1.776 -0.682,-3.295 -2.042,-4.565c-1.36,-1.264 -3.552,-1.898 -6.576,-1.898c-3.061,-0 -5.29,0.816 -6.687,2.437c-1.403,1.626 -2.102,3.61 -2.102,5.952l0,12.532c0,2.384 0.688,4.384 2.07,6.01c1.381,1.627 3.621,2.438 6.719,2.438c3.024,-0 5.216,-0.651 6.576,-1.958c1.36,-1.301 2.042,-2.901 2.042,-4.789l0,-1.248Z" style="fill:#fff;fill-rule:nonzero;"/><rect x="487.614" y="166.668" width="6.576" height="39.688" style="fill:#fff;"/><path d="M523.386,191.558l-5.845,-17.135l-5.808,17.135l11.653,-0Zm5.045,14.799l-3.269,-9.583l-15.194,-0l-3.248,9.583l-6.634,-0l14.346,-39.688l6.629,-0l14.292,39.688l-6.922,-0Z" style="fill:#fff;fill-rule:nonzero;"/><path d="M563.303,193.201l6.517,0l0,1.59c0,1.546 -0.25,3.002 -0.762,4.362c-0.512,1.36 -1.323,2.651 -2.437,3.856c-1.115,1.21 -2.694,2.176 -4.736,2.89c-2.043,0.72 -4.443,1.078 -7.2,1.078c-2.8,-0 -5.226,-0.411 -7.285,-1.248c-2.063,-0.827 -3.658,-1.941 -4.794,-3.344c-1.131,-1.397 -1.963,-2.901 -2.49,-4.506c-0.534,-1.606 -0.795,-3.318 -0.795,-5.131l-0,-12.532c-0,-1.814 0.261,-3.515 0.795,-5.099c0.527,-1.589 1.359,-3.082 2.49,-4.48c1.136,-1.397 2.731,-2.517 4.794,-3.349c2.059,-0.826 4.485,-1.242 7.285,-1.242c2.757,-0 5.157,0.346 7.2,1.045c2.042,0.704 3.621,1.648 4.736,2.837c1.114,1.189 1.925,2.448 2.437,3.771c0.512,1.322 0.762,2.741 0.762,4.25l0,1.36l-6.517,-0l0,-1.019c0,-1.776 -0.682,-3.295 -2.042,-4.565c-1.36,-1.264 -3.552,-1.898 -6.576,-1.898c-3.061,-0 -5.29,0.816 -6.687,2.437c-1.403,1.626 -2.101,3.61 -2.101,5.952l-0,12.532c-0,2.384 0.687,4.384 2.069,6.01c1.381,1.627 3.621,2.438 6.719,2.438c3.024,-0 5.216,-0.651 6.576,-1.958c1.36,-1.301 2.042,-2.901 2.042,-4.789l0,-1.248Z" style="fill:#fff;fill-rule:nonzero;"/><path d="M601.856,206.355l-0,-17.86l-17.802,0l0,17.86l-6.581,0l0,-39.688l6.581,0l0,16.1l17.802,0l-0,-16.1l6.576,0l-0,39.688l-6.576,0Z" style="fill:#fff;fill-rule:nonzero;"/></g></svg>