<?xml version="1.0" encoding="UTF-8" standalone="no"?><!DOCTYPE svg PUBLIC "-//W3C//DTD SVG 1.1//EN" "http://www.w3.org/Graphics/SVG/1.1/DTD/svg11.dtd"><svg width="100%" height="100%" viewBox="0 0 1000 512" version="1.1" xmlns="http://www.w3.org/2000/svg" xmlns:xlink="http://www.w3.org/1999/xlink" xml:space="preserve" xmlns:serif="http://www.serif.com/" style="fill-rule:evenodd;clip-rule:evenodd;stroke-linejoin:round;stroke-miterlimit:2;"><g><path d="M367.102,209.212l-78.95,-0l-0,78.95l-63.157,-0l0,-78.95l-78.95,-0l0,-63.157l221.057,-0l-0,63.157Zm-0.005,86.838c-0,39.181 -31.871,71.056 -71.051,71.056l-78.945,0c-39.18,0 -71.056,-31.875 -71.056,-71.056l0,-71.05l63.157,0.005l0,78.945l94.738,-0l-0,-78.95l63.157,-0l-0,71.05Zm-236.84,-165.788l0,165.788c0,47.888 38.957,86.844 86.844,86.844l78.945,0c47.887,0 86.844,-38.956 86.844,-86.844l-0,-165.788l-252.633,-0Z" style="fill:#fff;fill-rule:nonzero;"/><path d="M540.423,210.385l-37.392,0l-0,105.411l-14.717,-0l0,-105.411l-37.224,0l-0,-13.03l89.333,0l-0,13.03Z" style="fill:#fff;fill-rule:nonzero;"/><path d="M559.032,197.357l14.721,-0l-0,77.827c-0,8.24 2.367,15.204 7.106,20.898c4.735,5.695 12.293,8.54 22.671,8.54c10.49,-0 18.105,-2.845 22.839,-8.54c4.74,-5.694 7.107,-12.658 7.107,-20.898l-0,-77.827l14.721,-0l-0,78.503c-0,5.415 -0.762,10.464 -2.286,15.148c-1.519,4.678 -3.922,9.077 -7.188,13.192c-3.276,4.12 -7.929,7.391 -13.959,9.814c-6.035,2.428 -13.111,3.637 -21.234,3.637c-8.01,0 -15.031,-1.209 -21.065,-3.637c-6.035,-2.423 -10.688,-5.694 -13.96,-9.814c-3.271,-4.115 -5.669,-8.544 -7.188,-13.279c-1.523,-4.739 -2.285,-9.753 -2.285,-15.061l-0,-78.503Z" style="fill:#fff;fill-rule:nonzero;"/><path d="M692.862,281.96l0,33.831l-14.888,-0l-0,-118.435l14.888,-0l0,66.184l58.032,-66.184l17.596,-0l-44.941,50.275l46.465,68.16l-18.104,-0l-38.515,-56.802l-20.533,22.971Z" style="fill:#fff;fill-rule:nonzero;"/><path d="M789.472,315.792l0,-118.435l75.125,-0l-0,12.522l-60.236,-0l-0,38.067l57.188,0l0,12.182l-57.188,-0l-0,43.142l62.944,0l-0,12.522l-77.833,0Z" style="fill:#fff;fill-rule:nonzero;"/></g></svg>